<?xml version="1.0" encoding="utf-8"?>
<!-- Generator: Adobe Illustrator 27.1.0, SVG Export Plug-In . SVG Version: 6.00 Build 0)  -->
<svg version="1.1" id="Layer_1" xmlns="http://www.w3.org/2000/svg" xmlns:xlink="http://www.w3.org/1999/xlink" x="0px" y="0px"
	 viewBox="0 0 800 800" style="enable-background:new 0 0 800 800;" xml:space="preserve">
<style type="text/css">
	.st0{fill:#FFFFFF;}
</style>
<g>
	<path class="st0" d="M25.1,22V778h749.8V22H25.1z M735.7,738.5H64.3V61.5h671.5V738.5z"/>
	<path class="st0" d="M398.1,260.3H237.8v56.4h62c-13.2,19.2-36.8,31.6-62,31.6c-39.3,0-75.7-32.1-75.7-76.1
		c0-44,35.5-76.1,75.7-76.1c21.8,0,39.8,8.5,53.4,21.4l59.4-59c-18.4-18.1-41-31.9-66.3-39.6h-93.3c-31.9,9.8-59.5,29.3-79.5,55.1
		v196.6c0.1,0.1,0.2,0.3,0.3,0.5h-0.1v83.8h83.4v226.1h84.2V454.8h85.1V371H364c21.3-27.2,34.1-61.5,34.1-98.8V260.3z"/>
	<path class="st0" d="M558.9,455.2c42.3,0,76.5,34.2,76.5,76.5c0,41.9-34.2,76.5-76.5,76.5c-41.9,0-76.1-34.6-76.1-76.5
		C482.8,489.4,517,455.2,558.9,455.2 M399.1,532.2c0,67.9,42,125.7,101.6,148.9h116.7c28.6-11.2,53.3-30.3,71.1-54.6V437.6
		c-11.1-15.2-24.7-28.5-40.4-39c24.8-23,40.3-55.8,40.3-92.6V118.9h-84.6v185.8c0,23.1-18.8,41.9-41.9,41.9
		c-23.1,0-41.9-18.8-41.9-41.9V118.9h-84.7V306c0,35.8,14.4,67.7,37.8,90.6C428.5,425.2,399.1,475.3,399.1,532.2"/>
</g>
<g>
</g>
<g>
</g>
<g>
</g>
<g>
</g>
<g>
</g>
<g>
</g>
<g>
</g>
<g>
</g>
<g>
</g>
<g>
</g>
<g>
</g>
<g>
</g>
<g>
</g>
<g>
</g>
<g>
</g>
</svg>
